<svg width="52" height="35" viewBox="0 0 52 35" fill="none" xmlns="http://www.w3.org/2000/svg">
<path d="M18.8572 32.896C18.8572 33.2333 17.9219 33.5093 16.0512 33.724C14.1806 33.908 12.3099 34 10.4392 34C8.56855 34 7.35722 33.9233 6.80522 33.77C6.28389 33.586 6.02322 33.2947 6.02322 32.896V13.024H1.33122C0.809885 13.024 0.549219 11.9047 0.549219 9.666C0.549219 7.42733 0.809885 5.40333 1.33122 3.594C1.48455 3.01133 3.10989 2.47467 6.20722 1.984C9.30455 1.49333 11.6812 1.248 13.3372 1.248C14.9932 1.248 16.0972 1.30933 16.6492 1.432C17.2012 1.55466 17.6152 1.708 17.8912 1.892C18.1672 2.04533 18.3819 2.22933 18.5352 2.444C18.7499 2.78133 18.8572 3.10333 18.8572 3.41V32.896ZM36.757 13.898C37.033 13.6527 37.769 13.3307 38.965 12.932C40.161 12.5333 41.5103 12.334 43.013 12.334C44.5463 12.334 45.8343 12.564 46.877 13.024C47.9503 13.4533 48.7783 14.0053 49.361 14.68C49.9743 15.3547 50.4496 16.198 50.787 17.21C51.339 18.866 51.615 20.5527 51.615 22.27C51.615 23.9873 51.5383 25.2907 51.385 26.18C51.2623 27.0387 50.925 28.0047 50.373 29.078C49.8516 30.1513 49.131 31.056 48.211 31.792C47.3216 32.528 46.0336 33.1567 44.347 33.678C42.691 34.1687 40.7436 34.414 38.505 34.414C33.6903 34.414 30.0563 33.0953 27.603 30.458C25.1496 27.79 23.923 23.4967 23.923 17.578C23.923 11.6287 25.073 7.35067 27.373 4.744C29.673 2.10666 33.169 0.787997 37.861 0.787997C41.081 0.787997 43.8716 1.03333 46.233 1.524C48.625 1.984 49.821 2.536 49.821 3.18C49.821 3.97733 49.5143 5.37266 48.901 7.366C48.3183 9.35933 47.7816 10.356 47.291 10.356C47.1376 10.356 46.6776 10.2793 45.911 10.126C43.8256 9.69666 41.9243 9.482 40.207 9.482C38.4896 9.482 37.3856 9.91133 36.895 10.77C36.4043 11.598 36.159 12.8247 36.159 14.45C36.2816 14.2967 36.481 14.1127 36.757 13.898ZM37.769 18.038C36.8796 18.038 36.435 19.694 36.435 23.006C36.435 26.2873 36.8796 27.928 37.769 27.928C38.7196 27.928 39.195 26.2873 39.195 23.006C39.195 19.694 38.7196 18.038 37.769 18.038Z" fill="#D41443"/>
</svg>
