 <svg>
<defs>
<symbol id="cowarrow" viewBox="0 0 8 10" fill="none" xmlns="http://www.w3.org/2000/svg">
<path id="Vector 1" d="M1.61646 1L6.04413 5L1.61646 9" stroke="currentColor" stroke-width="2" stroke-linecap="round" stroke-linejoin="round"/>
</symbol>
<symbol id="icon-vedro" version="1.1" xmlns="http://www.w3.org/2000/svg"  viewBox="0 0 32 32">

<path fill="#ffa5ba" d="M8.093 0.144c-0.35 0.188-0.553 0.563-0.553 1.006 0.006 0.813 0.209 1.556 0.614 2.2l0.178 0.294-0.338 0.381c-0.381 0.425-0.473 0.581-0.645 1.088-0.141 0.412-0.153 1.162-0.031 1.581 0.43 1.438 1.854 2.269 3.248 1.9 0.473-0.125 0.761-0.281 1.203-0.656l0.375-0.312 0.35 0.175c0.196 0.1 0.528 0.244 0.743 0.325l0.381 0.138v0.7c0 1.106 0.227 1.762 0.81 2.356s1.498 0.9 2.29 0.762c0.565-0.1 1.117-0.381 1.492-0.762 0.583-0.594 0.81-1.25 0.81-2.356v-0.7l0.387-0.138c0.209-0.081 0.54-0.225 0.737-0.325l0.35-0.175 0.375 0.312c0.442 0.375 0.731 0.531 1.203 0.656 1.394 0.369 2.818-0.462 3.248-1.9 0.123-0.419 0.111-1.169-0.031-1.581-0.172-0.506-0.264-0.662-0.645-1.088l-0.338-0.381 0.178-0.294c0.405-0.644 0.608-1.387 0.614-2.2 0-0.444-0.203-0.819-0.553-1.006l-0.264-0.144h-15.926l-0.264 0.144zM22.828 2.1c0 0.019-0.178 0.313-0.399 0.663-0.651 1.031-0.626 1.256 0.239 2.169 0.313 0.331 0.602 0.662 0.645 0.737 0.233 0.463-0.233 1.038-0.749 0.919-0.123-0.025-0.393-0.244-0.786-0.631-0.786-0.775-1.056-0.862-1.658-0.519-0.694 0.4-1.578 0.806-2.008 0.925-0.608 0.175-0.817 0.306-0.976 0.638-0.129 0.256-0.141 0.362-0.141 1.362 0 1.231-0.049 1.431-0.399 1.6-0.252 0.125-0.301 0.125-0.553 0-0.35-0.169-0.399-0.369-0.399-1.6 0-1-0.012-1.106-0.135-1.362-0.166-0.325-0.375-0.463-0.982-0.638-0.528-0.15-1.308-0.494-1.738-0.775-0.405-0.263-0.761-0.362-1.044-0.313-0.184 0.037-0.368 0.181-0.86 0.662-0.405 0.394-0.694 0.625-0.817 0.65-0.51 0.119-0.976-0.463-0.743-0.919 0.043-0.075 0.332-0.406 0.645-0.737 0.866-0.912 0.89-1.138 0.239-2.169-0.221-0.35-0.399-0.644-0.399-0.663 0-0.025 2.929-0.038 6.508-0.038s6.508 0.013 6.508 0.038z"></path>
<path fill="#ffa5ba" d="M6.245 13.206c-0.313 0.212-0.485 0.512-0.485 0.844 0 0.225 3.119 16.925 3.229 17.275 0.055 0.194 0.282 0.425 0.522 0.55 0.227 0.125 0.387 0.125 6.809 0.125s6.582 0 6.809-0.125c0.239-0.125 0.467-0.356 0.522-0.55 0.11-0.35 3.229-17.050 3.229-17.275 0-0.331-0.172-0.631-0.485-0.844l-0.209-0.144h-19.732l-0.209 0.144zM24.455 15.481c-0.061 0.5-0.418 1.587-0.682 2.081-1.283 2.375-3.714 3.819-6.729 3.988-2.278 0.131-4.206-0.331-5.82-1.394-0.933-0.612-1.713-1.45-2.265-2.438-0.307-0.544-0.712-1.712-0.774-2.237l-0.043-0.356h16.356l-0.043 0.356zM10.15 21.919c2.634 1.775 6.569 2.244 9.885 1.169 1.105-0.356 2.235-0.956 3.18-1.688 0.276-0.219 0.295-0.219 0.264-0.081-0.018 0.081-0.381 1.994-0.804 4.244s-0.78 4.156-0.798 4.231l-0.031 0.144h-11.051l-0.031-0.144c-0.018-0.075-0.375-1.981-0.798-4.231s-0.786-4.163-0.804-4.244c-0.031-0.137-0.012-0.137 0.264 0.081 0.16 0.125 0.491 0.356 0.724 0.519z"></path>
</symbol>
<symbol id="apples" viewBox="0 0 50 50" fill="none" xmlns="http://www.w3.org/2000/svg">
<path d="M46.2908 33.454C44.2721 32.738 42.5691 32.9172 41.2248 33.4823C41.4507 32.1116 41.9596 30.6199 43.0522 29.6062C43.726 28.9813 43.7654 27.9286 43.1404 27.2549C42.5159 26.5813 41.463 26.5418 40.7891 27.1667C38.8686 28.9482 38.1241 31.4611 37.861 33.5433C37.361 33.3189 36.8093 33.1475 36.2081 33.0567L39.1615 17.698C39.2553 17.2104 39.1265 16.7067 38.8103 16.3241C38.4943 15.9414 38.024 15.7199 37.5275 15.7199H37.2086C37.3551 14.9379 37.429 14.1616 37.4231 13.4232C37.3984 10.3081 36.0118 7.96162 33.7142 7.14664C31.5115 6.36515 29.6679 6.6 28.2346 7.24983C28.4618 5.72525 29.0068 4.02576 30.2373 2.88435C30.911 2.25943 30.9504 1.20674 30.3255 0.532999C29.7009 -0.14057 28.6479 -0.180133 27.9741 0.444783C25.9112 2.35859 25.1383 5.07795 24.8775 7.29849C23.7292 6.75455 22.3091 6.47576 20.6455 6.78249C18.9359 4.32727 16.5628 3.19563 14.2558 3.74866C11.9879 4.29327 10.5714 5.49142 9.72311 6.81448C9.0822 5.40943 8.61065 3.68738 9.01739 2.07054C9.24146 1.17929 8.70072 0.275254 7.80964 0.051012C6.91806 -0.173735 6.01436 0.36751 5.79011 1.25876C5.10375 3.98738 5.93793 6.6894 6.92951 8.69327C5.3418 8.90775 3.62126 9.70842 2.16604 11.6088C1.2625 12.7889 0.957623 14.2621 1.2349 15.8268C0.964862 15.9278 0.721596 16.0966 0.533717 16.3241C0.217724 16.7067 0.0887676 17.2104 0.182539 17.698L6.13422 48.6503C6.28489 49.4337 6.97042 50 7.76823 50H31.5756C32.3734 50 33.059 49.4337 33.2096 48.6503L33.2682 48.3458C33.7169 48.6549 34.1989 48.9135 34.7162 49.1062C36.6948 49.8429 38.5389 49.5406 39.4721 49.2906C39.9657 49.4229 40.7144 49.5699 41.6031 49.5699C42.394 49.5699 43.2962 49.4534 44.2278 49.1062C47.916 47.7322 49.8755 43.1072 49.8465 39.453C49.8233 36.4781 48.494 34.2355 46.2908 33.454ZM35.4287 19.0476C34.6625 26.3998 28.4723 31.4062 19.8489 31.4062C11.2255 31.4062 5.03523 26.3997 4.26907 19.0476H35.4287ZM25.0502 11.7421C25.3381 12.2867 25.8876 12.6276 26.5041 12.6276C27.1206 12.6276 27.6699 12.2867 27.958 11.7421C28.0032 11.667 28.4113 11.0141 29.1598 10.5283C30.1428 9.89057 31.2686 9.81027 32.6016 10.283C33.9309 10.7544 34.0889 12.6545 34.0953 13.4495C34.1011 14.1737 33.9948 14.9519 33.7975 15.7197H22.6637C23.0319 13.8611 22.8108 11.8263 22.2123 9.98738C22.8007 10.0216 23.3433 10.201 23.848 10.5283C24.5968 11.0141 25.0046 11.6668 25.0502 11.7421ZM4.80846 13.6317C5.66823 12.5089 6.65577 11.9626 7.82782 11.9615H7.83102C8.72227 11.9615 9.41873 12.2859 9.49718 12.3239C10.0298 12.62 10.6672 12.5929 11.1825 12.2657C11.7 11.9367 11.9795 11.3414 11.9342 10.7298C11.9253 10.6094 11.7537 7.77138 15.0329 6.98418C16.4021 6.65488 17.5726 8.16162 18.0113 8.82492C19.2726 10.7318 19.9197 13.6806 19.2251 15.7195H4.61756C4.39752 15.0281 4.33826 14.246 4.80846 13.6317ZM9.14298 46.6722L5.84466 29.5197C6.06082 29.7274 6.28338 29.9301 6.5125 30.1274C9.96217 33.098 14.6985 34.734 19.8489 34.734C24.9992 34.734 29.7356 33.0982 33.1852 30.1274C33.2657 30.0583 33.3443 29.9874 33.4231 29.9168L32.7492 33.4219C32.7172 33.4328 32.6857 33.4428 32.6536 33.454C30.4504 34.2355 29.1211 36.4781 29.0977 39.453C29.0832 41.2724 29.5622 43.3322 30.5014 45.1116L30.2014 46.6722H9.14298ZM43.0662 45.9879C41.5921 46.5369 40.1273 46.0152 40.0728 45.9953C39.6827 45.8443 39.2627 45.8406 38.8731 45.9948C38.8583 46.0005 37.3729 46.5446 35.8782 45.9877C33.7883 45.2093 32.4054 41.9938 32.4253 39.4793C32.4312 38.7515 32.5731 37.0133 33.766 36.5902C34.312 36.3966 34.7995 36.3172 35.233 36.3172C36.9635 36.3172 37.8228 37.5857 38.0176 37.9175C38.3049 38.4643 38.8543 38.8067 39.4723 38.8067C40.0905 38.8067 40.6396 38.464 40.927 37.9175C41.1706 37.5027 42.4529 35.6239 45.1785 36.5902C46.3713 37.0131 46.5133 38.7515 46.5192 39.4793C46.5389 41.9939 45.1561 45.2094 43.0662 45.9879Z" fill="#FFA5BA"/>
</symbol>
<symbol id="heart" viewBox="0 0 46 52" fill="none" xmlns="http://www.w3.org/2000/svg">
<path d="M1.08336 18.1357L1.08339 18.1359C2.03783 22.5167 4.16167 26.4039 7.50728 29.775C10.4958 32.798 13.1215 34.6343 17.2695 36.5405C17.2698 36.5407 17.2702 36.5408 17.2705 36.541L19.2825 37.4855V44.1539V51V51.25H19.5325H20.6883H21.8442H22.0942V51V44.5478V38.4104L22.352 38.4857L22.3533 38.486C22.7258 38.5927 23.2743 38.5927 23.6468 38.486L23.6481 38.4857L23.9059 38.4104V44.5478V51V51.25H24.1559H25.3118H26.4676H26.7176V51V44.1539V37.4688L28.6324 36.5976L28.6336 36.5971C32.6458 34.7477 35.5611 32.7429 38.3968 29.8684L38.397 29.8682C42.9244 25.2711 45.2497 20.0338 45.2499 14.3322C45.2694 8.07514 41.9836 2.9571 36.7781 1.2093C35.6586 0.820095 35.0649 0.764313 33.0152 0.783142M1.08336 18.1357L23.2064 4.63963L23.0478 4.52232M1.08336 18.1357C0.866368 17.137 0.755017 15.7722 0.750166 14.4378C0.745322 13.1054 0.846546 11.7799 1.06487 10.8612C2.23925 5.67977 5.84783 1.84365 10.5219 0.863762M1.08336 18.1357L10.5219 0.863762M33.0152 0.783142L33.0175 1.03313L33.0153 0.783142C33.0153 0.783142 33.0152 0.783142 33.0152 0.783142ZM33.0152 0.783142C31.9463 0.792515 31.2762 0.815857 30.668 0.902878C30.0569 0.990295 29.5159 1.14087 28.7047 1.39474L28.7022 1.39553C26.7723 2.02188 24.8741 3.01043 23.6119 4.04729L23.6096 4.04922L23.0478 4.52232M23.0478 4.52232L22.1662 3.87062L22.1657 3.87026C19.4484 1.87175 16.6649 0.897934 13.3973 0.764584L13.3955 0.764507C12.8315 0.745579 12.2288 0.745567 11.7127 0.762161C11.2054 0.778469 10.7601 0.81131 10.5219 0.863762M23.0478 4.52232L10.5219 0.863762M21.3836 6.87937L21.383 6.87875C20.9969 6.51179 20.2963 6.00657 19.5297 5.5261C18.7658 5.04729 17.9568 4.60583 17.3591 4.36006C16.7958 4.14095 15.7146 3.82689 14.9213 3.67976C11.7123 3.09176 9.25032 3.71591 7.0805 5.64641L7.07887 5.64783C6.62023 6.04881 6.13464 6.5764 5.78629 7.01869C5.61905 7.23104 5.48885 7.4169 5.40893 7.55517C5.51357 7.57449 5.64727 7.59843 5.80405 7.62592C6.19043 7.69368 6.71402 7.78254 7.28127 7.87616C9.2817 8.18822 10.8334 8.60649 12.4963 9.40769C14.1541 10.2064 15.9134 11.3814 18.3338 13.1934L18.3362 13.1952C19.3188 13.9496 20.9776 14.9161 22.644 15.6994L22.6441 15.6994L22.6483 15.7014C23.3918 16.0681 24.1077 16.4354 24.6604 16.7352C24.9365 16.8849 25.1739 17.0189 25.3545 17.1282C25.4447 17.1827 25.5229 17.2325 25.5856 17.2759C25.6429 17.3156 25.7028 17.3604 25.7447 17.4054C25.9529 17.6278 26.1254 17.8511 26.2618 18.132C26.3976 18.4117 26.4917 18.7367 26.558 19.1573C26.6893 19.9895 26.7176 21.2393 26.7176 23.3344C26.7176 25.235 26.7227 26.2337 26.7721 26.8039C26.7967 27.0883 26.8309 27.2438 26.8706 27.3435C26.9061 27.4328 26.9497 27.4875 27.0273 27.563C27.4276 27.9528 27.9743 27.937 28.2659 27.6126L28.2658 27.6125L28.2718 27.6063C28.3528 27.5221 28.43 27.3875 28.4749 26.865C28.5195 26.3458 28.5293 25.5045 28.5293 24.0659C28.5293 22.1605 28.5759 21.0007 28.7881 20.2013C28.8964 19.7935 29.049 19.4727 29.2629 19.1908C29.4748 18.9115 29.7391 18.6807 30.0555 18.4449L30.0585 18.4427C30.3778 18.212 30.6559 18.0609 31.1093 17.9417C31.5483 17.8262 32.1534 17.7402 33.1236 17.628L33.1248 17.6278C36.1543 17.2918 37.9047 16.9016 39.9986 16.1046L39.9988 16.1046C40.6563 15.8551 41.1423 15.6684 41.5055 15.5013C41.871 15.3332 42.0857 15.1962 42.2181 15.057C42.3408 14.928 42.4051 14.7839 42.4351 14.566C42.4669 14.3349 42.458 14.0392 42.4385 13.6113L42.4384 13.6113L42.4383 13.6061C42.4195 12.8586 42.2302 11.6029 42.023 10.8326L42.0227 10.8316C40.8708 6.47433 37.2753 3.42135 33.3835 3.42135C30.4793 3.42135 26.9366 4.78597 24.7476 6.77024L24.7464 6.77132C24.3892 7.09093 24.0876 7.34282 23.8172 7.51701C23.5457 7.69184 23.2855 7.80185 23.0122 7.81249C22.7352 7.82328 22.4803 7.73079 22.223 7.56975C21.9696 7.4112 21.698 7.176 21.3836 6.87937ZM5.17892 7.50983C5.17591 7.50893 5.17425 7.50854 5.17447 7.50864C5.17464 7.50872 5.17602 7.50911 5.17892 7.50983ZM14.646 13.9706L14.6445 13.9695C12.6422 12.4842 10.4569 11.3949 8.53117 10.9168C7.64875 10.7044 6.52412 10.5279 5.6016 10.4374C5.13982 10.3921 4.73527 10.369 4.44044 10.3726C4.29177 10.3744 4.18014 10.383 4.10621 10.3962C4.09457 10.3982 4.08479 10.4002 4.07669 10.4021C3.99781 10.5576 3.91368 10.8319 3.83642 11.2086C3.75233 11.6185 3.68179 12.1209 3.6306 12.6599C3.528 13.7401 3.50506 14.946 3.59899 15.824C4.11205 20.5782 6.18011 24.5959 10.1504 28.4058L10.1512 28.4065C13.2827 31.4369 17.1801 33.8 21.5966 35.2891L21.5966 35.2891L21.6001 35.2904L23.0006 35.7862L24.4202 35.29L24.4216 35.2895C28.553 33.8742 32.6054 31.5093 35.5437 28.76C37.5691 26.8624 38.6131 25.5682 39.9487 23.2833L39.9497 23.2817C40.3629 22.5867 40.9301 21.3265 41.3694 20.2069C41.5885 19.6486 41.773 19.1322 41.8892 18.7455C41.9309 18.6064 41.9627 18.4878 41.9842 18.392C41.9163 18.4097 41.8371 18.4319 41.7478 18.4583C41.4221 18.5549 40.9795 18.703 40.5018 18.8798L40.5005 18.8803C38.5706 19.5825 35.6787 20.2056 33.3479 20.4136L33.3463 20.4137C33.3114 20.4166 33.2773 20.4194 33.2437 20.4222C32.7186 20.4653 32.3529 20.4954 32.081 20.5667C31.8112 20.6375 31.6718 20.7394 31.5764 20.9178C31.4673 21.1218 31.402 21.4506 31.3702 22.017C31.3408 22.54 31.3409 23.2291 31.341 24.1514C31.3411 24.2155 31.3411 24.2808 31.3411 24.3473C31.3411 26.1308 31.3179 27.1836 31.1851 27.8958C31.1175 28.2584 31.0201 28.5423 30.8784 28.7952C30.7377 29.0462 30.5596 29.2551 30.3461 29.4727C29.9644 29.8735 29.582 30.1631 29.1543 30.3508C28.7255 30.5389 28.2659 30.618 27.7391 30.618C26.9259 30.618 26.2322 30.4566 25.6534 30.1031C25.0736 29.749 24.6298 29.2148 24.2957 28.5051L24.2956 28.5049C24.1255 28.1425 24.0287 27.7972 23.9741 27.1005C23.9202 26.4137 23.9059 25.3671 23.9059 23.597C23.9059 22.1247 23.8914 21.0989 23.8557 20.4168C23.8378 20.0751 23.8148 19.8265 23.7871 19.6538C23.7733 19.5674 23.7591 19.5058 23.7459 19.4639C23.7369 19.4352 23.7305 19.4227 23.7292 19.4202C23.7292 19.4202 23.7292 19.4202 23.7292 19.4202C23.7277 19.4185 23.7175 19.4077 23.6916 19.3873C23.6646 19.366 23.6279 19.34 23.5811 19.3097C23.4874 19.249 23.3629 19.1771 23.2147 19.098C22.919 18.9404 22.5407 18.7607 22.1513 18.5942C20.5163 17.9118 18.3608 16.7021 17.0528 15.7327C16.5722 15.3771 15.495 14.5905 14.6471 13.9714L14.646 13.9706ZM4.04543 10.4111C4.0423 10.4125 4.04291 10.4125 4.04606 10.4109L4.04543 10.4111ZM4.10544 10.3503L4.10365 10.3533C4.10424 10.3523 4.10485 10.3513 4.10544 10.3503Z" fill="#FFA5BA" stroke="#FFA5BA" stroke-width="0.5"/>
</symbol>
<symbol id="kovuchki" version="1.1" xmlns="http://www.w3.org/2000/svg" viewBox="0 0 43 32">
<title>kovvvuchki</title>
<path fill="#e1e1e1" d="M32.014 0c1.929 0 3.75 0.52 5.464 1.561s3.107 2.537 4.179 4.488c1.029 1.951 1.543 4.249 1.543 6.894s-0.643 5.225-1.928 7.74c-0.429 0.911-1.2 2.081-2.314 3.512-1.157 1.431-2.229 2.667-3.214 3.707l-4.050 4.098-2.893-4.813c2.014-1.258 3.793-2.818 5.336-4.683 1.543-1.821 2.314-3.49 2.314-5.008 0-0.78-0.172-1.409-0.514-1.886-1.5 1.084-3.172 1.626-5.014 1.626-1.329 0-2.593-0.412-3.793-1.236-1.243-0.78-2.228-1.821-2.957-3.122-0.772-1.257-1.157-2.558-1.157-3.902 0-1.518 0.45-2.97 1.35-4.358 0.857-1.388 1.993-2.515 3.407-3.382 1.371-0.824 2.786-1.236 4.243-1.236zM8.936 0c1.928 0 3.75 0.52 5.464 1.561s3.107 2.537 4.178 4.488c1.029 1.951 1.543 4.249 1.543 6.894 0 1.865-0.236 3.534-0.707 5.008-0.471 1.518-1.286 3.1-2.443 4.748-1.114 1.561-2.164 2.862-3.15 3.902-0.986 1.084-2.7 2.884-5.143 5.398l-2.893-4.813c2.014-1.258 3.793-2.818 5.336-4.683 1.543-1.821 2.314-3.491 2.314-5.008 0-0.78-0.172-1.409-0.514-1.886-1.5 1.084-3.172 1.626-5.014 1.626-1.329 0-2.593-0.412-3.793-1.236-1.243-0.78-2.228-1.821-2.957-3.122-0.771-1.257-1.157-2.558-1.157-3.902 0-1.518 0.429-2.97 1.286-4.358s1.993-2.515 3.407-3.382c1.371-0.824 2.786-1.236 4.243-1.236z"></path>
</symbol>



</defs>
</svg>
